<?xml version="1.0"?>
<svg xmlns="http://www.w3.org/2000/svg" xmlns:xlink="http://www.w3.org/1999/xlink" xmlns:svgjs="http://svgjs.com/svgjs" version="1.1" width="512" height="512" x="0" y="0" viewBox="0 0 500.112 500.112" style="enable-background:new 0 0 512 512" xml:space="preserve" class=""><g>
<g xmlns="http://www.w3.org/2000/svg">
	<g>
		<path d="M162.056,116.624h-16c0,27.568,10,54.176,28.16,74.936l12.048-10.536C170.648,163.184,162.056,140.312,162.056,116.624z" fill="#04d2b080" data-original="#000000" style=""/>
	</g>
</g>
<g xmlns="http://www.w3.org/2000/svg">
	<g>
		<path d="M291.536,41.192c-25.504,19.896-57.448,19.904-82.96,0l-9.84,12.616c15.584,12.16,33.336,18.592,51.32,18.592    s35.736-6.432,51.32-18.6L291.536,41.192z" fill="#04d2b080" data-original="#000000" style=""/>
	</g>
</g>
<g xmlns="http://www.w3.org/2000/svg">
	<g>
		<path d="M290.056,496.4h210.056l-44.536-193c-4.216-18.248-20.24-31-38.976-31h-94.544v-6.776    c5.048-19.512,14.656-37.832,27.928-52.992c23.256-26.592,36.072-60.68,36.072-96V70.568c0-38.688-31.48-70.168-70.168-70.168    c-15.752,0-30.976,5.376-44.032,15.552c-14.376,11.208-29.232,11.208-43.608,0C215.2,5.776,199.968,0.4,184.224,0.4    c-38.688,0-70.168,31.48-70.168,70.168v46.064c0,35.32,12.816,69.408,36.072,96c13.272,15.168,22.88,33.48,27.928,52.992v6.776    H83.512c-18.736,0-34.76,12.752-38.976,31.008L0,496.4h210.056v-16H20.112l40.016-173.392c2.52-10.96,12.136-18.608,23.384-18.608    h94.544v16h24v22.776l-9.136,1.304l2.264,15.832l6.872-0.976v15.84l-9.136,1.304l2.264,15.832l6.872-0.976v15.84l-9.136,1.304    l2.264,15.832l6.872-0.976v15.84l-9.136,1.304l2.264,15.832l6.872-0.976v12.376l48,48l48-48v-26.088l9.136-1.304l-2.264-15.832    l-6.872,0.976v-15.84l9.136-1.304l-2.264-15.832l-6.872,0.976v-15.84l9.136-1.304l-2.264-15.832l-6.872,0.976v-15.84l9.136-1.304    l-2.264-15.832l-6.872,0.976V304.4h24v-16H416.6c11.24,0,20.856,7.648,23.384,18.6L480,480.4H290.056V496.4z M282.056,445.088    l-32,32l-32-32v-8.04l64-9.144V445.088z M282.056,411.752l-64,9.144v-15.84l64-9.144V411.752z M282.056,379.752l-64,9.144v-15.84    l64-9.144V379.752z M282.056,347.752l-64,9.144v-15.84l64-9.144V347.752z M282.056,315.752l-64,9.144V304.4h64V315.752z     M308.016,256.408h-25.96v16h24V288.4h-8h-96h-8v-16h72v-16h-73.96c-5.976-19.96-16.208-38.632-29.92-54.312    c-20.712-23.664-32.12-54.016-32.12-85.456V70.568c0-29.864,24.296-54.168,54.168-54.168c12.16,0,23.976,4.208,34.184,12.168    c20.144,15.704,43.16,15.704,63.296,0c10.208-7.96,22.032-12.168,34.184-12.168c29.872,0,54.168,24.304,54.168,54.168v46.064    c0,31.44-11.408,61.792-32.12,85.464C324.224,217.776,313.984,236.448,308.016,256.408z" fill="#04d2b080" data-original="#000000" style=""/>
	</g>
</g>
<g xmlns="http://www.w3.org/2000/svg">
	<g>
		<rect x="146.056" y="88.4" width="16" height="16" fill="#04d2b080" data-original="#000000" style=""/>
	</g>
</g>
<g xmlns="http://www.w3.org/2000/svg">
</g>
<g xmlns="http://www.w3.org/2000/svg">
</g>
<g xmlns="http://www.w3.org/2000/svg">
</g>
<g xmlns="http://www.w3.org/2000/svg">
</g>
<g xmlns="http://www.w3.org/2000/svg">
</g>
<g xmlns="http://www.w3.org/2000/svg">
</g>
<g xmlns="http://www.w3.org/2000/svg">
</g>
<g xmlns="http://www.w3.org/2000/svg">
</g>
<g xmlns="http://www.w3.org/2000/svg">
</g>
<g xmlns="http://www.w3.org/2000/svg">
</g>
<g xmlns="http://www.w3.org/2000/svg">
</g>
<g xmlns="http://www.w3.org/2000/svg">
</g>
<g xmlns="http://www.w3.org/2000/svg">
</g>
<g xmlns="http://www.w3.org/2000/svg">
</g>
<g xmlns="http://www.w3.org/2000/svg">
</g>
</g></svg>
